HIERARCHY
ROOT Hips
{
	OFFSET -3.958830 18.904000 13.208200
	CHANNELS 6 Xposition Yposition Zposition Zrotation Yrotation Xrotation 
	JOINT LHipJoint
	{
		OFFSET 0.000000 0.000000 0.000000
		CHANNELS 3 Zrotation Yrotation Xrotation
		JOINT LeftUpLeg
		{
			OFFSET 1.800000 -1.400000 0.085000
			CHANNELS 3 Zrotation Yrotation Xrotation
			JOINT LeftLeg
			{
				OFFSET 2.215000 -6.000000 0.000000
				CHANNELS 3 Zrotation Yrotation Xrotation
				JOINT LeftFoot
				{
					OFFSET 2.500000 -6.900000 0.000000
					CHANNELS 3 Zrotation Yrotation Xrotation
					JOINT LeftToeBase
					{
						OFFSET 0.200000 -0.500000 1.950000
						CHANNELS 3 Zrotation Yrotation Xrotation
						End Site
						{
							OFFSET 0.000000 0.000000 0.000000
						}
					}
				}
			}
		}
	}
	JOINT RHipJoint
	{
		OFFSET 0.000000 0.000000 0.000000
		CHANNELS 3 Zrotation Yrotation Xrotation
		JOINT RightUpLeg
		{
			OFFSET -1.800000 -1.400000 0.085000
			CHANNELS 3 Zrotation Yrotation Xrotation
			JOINT RightLeg
			{
				OFFSET -2.215000 -6.000000 0.000000
				CHANNELS 3 Zrotation Yrotation Xrotation
				JOINT RightFoot
				{
					OFFSET -2.500000 -6.900000 0.000000
					CHANNELS 3 Zrotation Yrotation Xrotation
					JOINT RightToeBase
					{
						OFFSET -0.200000 -0.500000 1.950000
						CHANNELS 3 Zrotation Yrotation Xrotation
						End Site
						{
							OFFSET 0.000000 0.000000 0.000000
						}
					}
				}
			}
		}
	}
	JOINT LowerBack
	{
		OFFSET 0.000000 0.000000 0.000000
		CHANNELS 3 Zrotation Yrotation Xrotation
		JOINT Spine
		{
			OFFSET -0.087000 1.940000 -0.288900
			CHANNELS 3 Zrotation Yrotation Xrotation
			JOINT Spine1
			{
				OFFSET 0.000000 1.950000 0.060000
				CHANNELS 3 Zrotation Yrotation Xrotation
				JOINT Neck
				{
					OFFSET 0.000000 0.000000 0.000000
					CHANNELS 3 Zrotation Yrotation Xrotation
					JOINT Neck1
					{
						OFFSET 0.000000 1.600000 0.340000
						CHANNELS 3 Zrotation Yrotation Xrotation
						JOINT Head
						{
							OFFSET 0.000000 1.667000 -0.240000
							CHANNELS 3 Zrotation Yrotation Xrotation
							End Site
							{
								OFFSET 0.000000 0.000000 0.000000
							}
						}
					}
				}
				JOINT LeftShoulder
				{
					OFFSET 0.000000 0.000000 0.000000
					CHANNELS 3 Zrotation Yrotation Xrotation
					JOINT LeftArm
					{
						OFFSET 2.700000 1.550000 -0.730000
						CHANNELS 3 Zrotation Yrotation Xrotation
						JOINT LeftForeArm
						{
							OFFSET 5.450000 0.000000 0.000000
							CHANNELS 3 Zrotation Yrotation Xrotation
							JOINT LeftHand
							{
								OFFSET 3.450000 0.000000 0.000000
								CHANNELS 3 Zrotation Yrotation Xrotation
								JOINT LeftHandIndex1
								{
									OFFSET 0.750000 0.000000 0.000000
									CHANNELS 3 Zrotation Yrotation Xrotation
									End Site
									{
										OFFSET 0.000000 0.000000 0.000000
									}
								}
							}
						}
					}
				}
				JOINT RightShoulder
				{
					OFFSET 0.000000 0.000000 0.000000
					CHANNELS 3 Zrotation Yrotation Xrotation
					JOINT RightArm
					{
						OFFSET -2.700000 1.550000 -0.730000
						CHANNELS 3 Zrotation Yrotation Xrotation
						JOINT RightForeArm
						{
							OFFSET -5.450000 0.000000 0.000000
							CHANNELS 3 Zrotation Yrotation Xrotation
							JOINT RightHand
							{
								OFFSET -3.450000 0.000000 0.000000
								CHANNELS 3 Zrotation Yrotation Xrotation
								JOINT RightHandIndex1
								{
									OFFSET -0.750000 0.000000 0.000000
									CHANNELS 3 Zrotation Yrotation Xrotation
									End Site
									{
										OFFSET 0.000000 0.000000 0.000000
									}
								}
							}
						}
					}
				}
			}
		}
	}
}
MOTION
Frames: 9
Frame Time: 0.016667
-15.778440 17.125270 -1.206580 -6.735524 -15.043692 -11.437664 -15.005222 12.598915 3.528701 9.279401 -1.687004 -10.600085 -5.640139 2.225437 -10.033421 -0.455057 3.836509 3.199790 0.628220 0.774190 0.403990 18.656599 -9.713112 3.078473 -4.156120 -5.427463 17.545776 10.330992 -6.253449 1.544786 -1.120519 -5.875404 2.105269 0.648770 0.206300 0.050360 -4.336352 -3.872479 -7.631226 15.904095 -2.033481 12.103716 -4.153569 0.515169 23.845221 -5.774768 -5.475107 -19.414386 -18.238812 24.324372 29.131824 16.555160 15.989810 -9.915810 -4.673986 -38.198272 -0.342044 0.311426 -31.652430 -6.053021 7.593241 -33.624914 -2.350659 -3.575323 3.567556 0.315310 0.001470 0.114740 0.088780 14.526485 30.979048 19.725112 -7.224491 -13.191272 2.243821 -4.617266 9.033337 -0.632341 2.385203 -1.555939 -0.201670 0.317680 -0.143030 -0.031170 
-15.776630 17.127890 -1.201590 -6.807698 -15.024764 -11.281145 -15.017471 12.639298 3.542912 9.405516 -1.737494 -10.974420 -5.631942 2.248850 -9.871367 -0.514963 3.861043 3.177321 0.612110 0.704910 0.489620 18.640779 -9.685419 3.065405 -4.006316 -5.377496 17.312092 10.268706 -6.294009 1.889561 -1.104484 -5.837929 2.075012 0.626630 0.164680 0.052570 -4.286979 -3.994708 -7.640826 15.952363 -1.971432 12.372250 -3.857270 0.537153 23.526369 -5.651543 -5.537972 -19.672112 -19.048955 26.497217 28.629739 14.922610 18.708320 -9.586560 -4.448460 -38.039738 -0.191646 0.023697 -31.744551 -6.196524 7.809257 -34.208486 -2.596431 -3.590697 3.585613 0.358080 -0.002430 0.115720 0.035040 14.080716 30.690016 19.698796 -6.896787 -13.625297 2.238625 -5.181455 9.174865 -0.635637 2.400381 -1.563447 -0.245390 0.284750 -0.134650 -0.103900 
-15.773740 17.133310 -1.186820 -6.898015 -14.945622 -10.788216 -15.004474 12.619588 3.549671 9.376188 -1.854222 -11.602865 -5.608519 2.205081 -9.831299 -0.567056 3.811497 3.182000 0.641070 0.713070 0.559720 18.656049 -9.701214 3.041406 -3.863482 -5.282174 16.725539 10.108515 -6.272290 2.257376 -1.108202 -5.765341 2.069800 0.638910 0.124630 0.042540 -4.330691 -3.958528 -7.612887 16.481120 -1.990112 12.209241 -3.994924 0.727968 22.369200 -5.657621 -5.800941 -19.678831 -20.400450 28.674266 27.955592 14.554610 20.705080 -9.856680 -4.899439 -37.364883 0.162381 -0.669453 -32.470431 -5.573685 7.545546 -34.393357 -2.499121 -3.556038 3.570772 0.402440 -0.028520 0.136380 0.021040 14.681896 30.112541 19.309954 -7.260514 -14.086323 2.342297 -5.117653 9.422792 -0.629948 2.397687 -1.588918 -0.269010 0.277900 -0.154030 -0.145120 
-15.776260 17.141620 -1.190110 -6.465271 -14.991980 -10.813548 -14.996807 12.655630 3.557327 8.914932 -1.931850 -11.729443 -5.400992 2.166409 -9.783120 -0.604223 3.718168 3.217368 0.710970 0.782100 0.651460 18.655401 -9.727558 3.023364 -4.178186 -5.064031 16.324064 10.030104 -6.274506 2.748417 -1.121975 -5.722026 2.067234 0.683690 0.072010 0.007230 -4.332053 -4.001250 -7.615268 15.977410 -1.856914 12.461095 -3.875762 1.042546 22.425933 -6.016985 -5.798475 -20.078483 -21.062301 30.392782 27.206943 14.163570 22.627750 -10.254340 -4.401895 -37.613726 0.065899 -0.563045 -32.202414 -5.832166 7.445856 -34.235601 -2.486539 -3.486782 3.600575 0.435210 -0.063750 0.161020 0.032290 14.842636 30.113344 19.433760 -7.199967 -14.599554 2.522139 -5.413520 9.257157 -0.699731 2.412345 -1.636298 -0.287660 0.277890 -0.219910 -0.177850 
-15.774730 17.147120 -1.185920 -6.200438 -15.191382 -10.562377 -14.975668 12.668412 3.540307 8.522182 -1.986464 -12.110932 -5.170332 2.150549 -9.509651 -0.584941 3.564873 3.280561 0.757190 0.842600 0.713520 18.664134 -9.789679 3.027242 -4.515731 -4.895796 15.911770 10.114948 -6.259876 2.876648 -1.134375 -5.685832 2.091433 0.697120 0.025230 -0.017360 -4.373600 -3.907516 -7.608321 16.109452 -1.771930 12.619070 -4.018621 1.411115 21.420598 -5.916160 -6.045759 -20.151564 -22.689880 31.796475 26.931824 13.474750 24.083830 -10.236680 -5.195246 -37.172194 0.312820 -0.794117 -32.748746 -5.404534 7.149762 -34.050852 -2.213881 -3.425943 3.580664 0.440400 -0.087520 0.192860 0.050540 15.587793 29.967726 19.321577 -7.703734 -14.924747 2.650741 -5.595604 9.035834 -0.726960 2.451642 -1.679127 -0.274650 0.260250 -0.295600 -0.183080 
-15.766300 17.153640 -1.195110 -6.316108 -15.521524 -10.952985 -14.930761 12.699278 3.496885 8.751739 -1.835180 -12.020403 -5.026367 2.296072 -8.803234 -0.527046 3.498603 3.351571 0.694400 0.789850 0.715220 18.682875 -9.905938 3.050052 -4.689602 -4.918366 15.930394 10.125677 -6.386214 3.369129 -1.119525 -5.696013 2.139852 0.641700 0.040070 -0.055950 -4.452319 -3.720754 -7.607797 16.775397 -2.003025 13.599516 -4.502796 1.471271 21.363724 -5.309489 -5.982007 -20.780736 -23.849799 32.742296 27.383161 11.728510 25.805420 -9.217830 -5.314645 -37.616743 0.352236 0.103357 -31.950756 -6.086999 6.578058 -33.983706 -1.921322 -3.422206 3.536949 0.426490 -0.066430 0.191620 0.053480 14.626366 30.344307 19.781283 -7.316206 -15.449631 2.726058 -4.684576 8.983316 -0.661034 2.482921 -1.624481 -0.298290 0.271790 -0.330680 -0.180330 
-15.759150 17.160040 -1.206610 -6.393865 -15.600478 -11.244447 -14.929989 12.772015 3.509176 8.979571 -1.764452 -12.079730 -5.137218 2.407908 -8.391038 -0.413338 3.469125 3.387713 0.585240 0.679130 0.650660 18.658985 -9.931986 3.062938 -4.669717 -4.960688 15.958831 10.035504 -6.475121 3.786291 -1.071755 -5.707725 2.174972 0.541190 0.061830 -0.060730 -4.397530 -3.754290 -7.657802 16.855072 -2.197386 14.422837 -4.754113 1.402901 21.271281 -4.294302 -5.749471 -21.529760 -24.466482 33.450464 28.188591 10.452900 27.324530 -6.221640 -5.576150 -38.046846 0.448106 0.976653 -31.022506 -6.791558 5.403302 -34.333330 -1.447500 -3.420776 3.613310 0.373220 -0.032990 0.162510 0.047450 13.051343 30.856147 20.484653 -5.729294 -16.134880 2.571386 -4.514933 9.606896 -0.580356 2.535653 -1.614655 -0.290900 0.211250 -0.330020 -0.160510 
-15.759740 17.161080 -1.204800 -6.497797 -15.196654 -11.107939 -14.949320 12.828155 3.488829 8.978188 -1.773354 -12.588339 -5.056485 2.447880 -7.952321 -0.278331 3.370844 3.416435 0.540350 0.670340 0.585240 18.640327 -9.887887 3.074784 -4.304761 -5.043286 15.998130 9.807614 -6.372230 3.597465 -1.043698 -5.724303 2.175321 0.492430 0.072490 -0.014750 -4.332512 -3.897164 -7.655037 16.727143 -2.340395 14.191405 -4.551437 1.055451 21.459733 -3.958298 -5.722005 -21.727064 -24.482810 33.357126 27.912804 9.688600 27.912520 -3.479580 -5.149115 -38.159014 0.439946 0.879453 -30.863917 -6.923898 4.527832 -34.063816 -1.078847 -3.428211 3.772373 0.249850 0.009990 0.148180 0.060550 12.005673 31.069001 20.687381 -5.166178 -16.001004 2.593346 -4.458130 9.849065 -0.596948 2.598027 -1.681531 -0.204640 0.111120 -0.346210 -0.098970 
-15.759990 17.158530 -1.195700 -6.605749 -14.694500 -10.821186 -14.953662 12.790533 3.480944 8.907422 -1.833023 -13.077542 -5.344263 2.433241 -7.860324 -0.234734 3.337764 3.426108 0.537290 0.690550 0.540430 18.649077 -9.874181 3.061806 -4.064993 -5.078904 15.903099 9.665720 -6.316838 3.540881 -1.035427 -5.746277 2.176505 0.492560 0.096420 0.019130 -4.344115 -3.871036 -7.618263 16.950473 -2.215462 13.621858 -4.517359 1.104040 21.375271 -4.038179 -5.810638 -21.430842 -24.425399 33.128331 27.587249 9.676330 27.707860 -2.389170 -4.754318 -37.595303 0.524548 0.295446 -31.592219 -6.382322 5.723693 -32.844529 -1.337957 -3.472313 3.780403 0.191760 0.042010 0.139820 0.087250 11.749420 30.678032 20.436577 -5.095566 -15.975062 2.654185 -4.217395 10.202563 -0.619475 2.594880 -1.731763 -0.164410 0.077080 -0.353520 -0.059910 
